<svg width="200" height="200" viewBox="0 0 200 200" fill="none" xmlns="http://www.w3.org/2000/svg">
<path d="M143.4 38.5C155.6 49.1 164.4 62.7 171.5 78.2C178.6 93.8 184 111.4 179.7 126.3C175.5 141.2 161.6 153.4 146.7 162.3C131.8 171.2 115.9 176.9 100.5 176.1C85.2002 175.4 70.4002 168.3 55.7002 159.3C41.1002 150.3 26.6002 139.4 18.3002 124.1C9.90025 108.8 7.70024 89 13.9002 72.7C20.1002 56.4 34.9002 43.5 50.6002 34C66.4002 24.6 83.2002 18.6 99.4002 19.4C115.6 20.3 131.2 27.9 143.4 38.5Z" fill="#DAA520"/>
</svg>
