<svg width="200" height="200" viewBox="0 0 200 200" fill="none" xmlns="http://www.w3.org/2000/svg">
<path d="M148.9 33.3C163.2 43.1 174.7 57.6 180.8 74.3C187 91 187.8 109.9 182.9 127.5C177.9 145 167.1 161.2 152.3 169.7C137.5 178.1 118.8 178.7 102.3 175.6C85.8002 172.5 71.6002 165.6 58.0002 156.8C44.4002 148 31.4002 137.2 27.3002 123.8C23.1002 110.3 27.7002 94.2 34.4002 80.2C41.0002 66.2 49.7002 54.4 60.9002 43.6C72.2002 32.8 86.1002 22.9 101.7 20.6C117.3 18.2 134.5 23.5 148.9 33.3Z" fill="#DAA520"/>
</svg>
