<svg width="200" height="200" viewBox="0 0 200 200" fill="none" xmlns="http://www.w3.org/2000/svg">
<path d="M147.2 38.2999C162.2 45.8999 176.1 58.2999 181.7 73.8999C187.3 89.3999 184.6 108 178.4 125C172.3 142 162.6 157.4 148.9 168.2C135.3 179 117.6 185.2 101.5 183.2C85.3001 181.1 70.6001 170.9 57.7001 159.9C44.7001 148.9 33.6001 137 26.9001 122.4C20.2001 107.7 17.9001 90.0999 21.9001 73.4999C25.8001 56.9999 35.9001 41.3 50.0001 33.3C64.0001 25.3 82.0001 25 99.0001 26.3C116.1 27.6 132.2 30.5999 147.2 38.2999Z" fill="#DAA520"/>
</svg>
