<svg width="60" height="60" viewBox="0 0 60 60" fill="none" xmlns="http://www.w3.org/2000/svg">
<g clip-path="url(#clip0_64_39)">
<path d="M37.2201 2.00757H6C6 2.00757 2 2.00759 2 8.28258C2 12.6266 2 34.7825 2 48.0073C2 53.5302 6.47715 58 12 58H48C53.5228 58 58 53.5229 58 48V40.5V12.001C58 6.48071 53.5269 2.00462 48.0066 2.00099L46.5 2" stroke="#DAA520" stroke-width="2.5" stroke-linecap="round" stroke-linejoin="round"/>
<path d="M43 2C43 2.69036 42.4404 3.25 41.75 3.25C41.0596 3.25 40.5 2.69036 40.5 2C40.5 1.30964 41.0596 0.75 41.75 0.75C42.4404 0.75 43 1.30964 43 2Z" fill="#DAA520"/>
<path d="M29 7C29 7 7 7.5 7 30C7 52.5 30 52.5 30 52.5C30 52.5 52.5 52.5 52.5 30C52.5 7.5 12.5 3.5 12.5 30" stroke="#DAA520" stroke-width="2.5"/>
<path d="M41.5 36H42C43.1046 36 44 35.1046 44 34V32.7346C44 31.7393 43.2681 30.8954 42.2828 30.7547L37.8201 30.1172C37.295 30.0421 36.8212 29.7616 36.5029 29.3373L34.6 26.8C34.2223 26.2964 33.6295 26 33 26H25C24.3705 26 23.7777 26.2964 23.4 26.8L21.426 29.4319C21.1504 29.7994 20.7567 30.0608 20.3111 30.1722L18.5149 30.6213C17.6246 30.8439 17 31.6438 17 32.5616V34C17 35.1046 17.8954 36 19 36H19.5M36 36H25" stroke="#DAA520"/>
<circle cx="22.5" cy="36.5" r="3" stroke="#DAA520"/>
<circle cx="38.5" cy="36.5" r="3" stroke="#DAA520"/>
</g>
<defs>
<clipPath id="clip0_64_39">
<rect width="60" height="60" fill="white"/>
</clipPath>
</defs>
</svg>
